<mxfile host="app.diagrams.net" modified="2024-02-22T23:21:44.777Z" agent="Mozilla/5.0 (Windows NT 10.0; Win64; x64) AppleWebKit/537.36 (KHTML, like Gecko) Chrome/121.0.0.0 Safari/537.36" etag="dDXsWtdkWIh8G0G-ycDC" version="23.1.5" type="device">
  <diagram name="Página-1" id="SUF4X1gPeYqpVOtsVKd3">
    <mxGraphModel dx="714" dy="1548" grid="1" gridSize="10" guides="1" tooltips="1" connect="1" arrows="1" fold="1" page="1" pageScale="1" pageWidth="827" pageHeight="1169" math="0" shadow="0">
      <root>
        <mxCell id="0" />
        <mxCell id="1" parent="0" />
        <mxCell id="QuyFFcvGprq-nVCTM5Tm-2" value="Domain (Negócio)" style="rounded=0;whiteSpace=wrap;html=1;fontFamily=Tahoma;fontStyle=1;fillColor=#0050ef;strokeColor=#001DBC;fontColor=#ffffff;" parent="1" vertex="1">
          <mxGeometry x="160" y="-230" width="480" height="70" as="geometry" />
        </mxCell>
        <mxCell id="QuyFFcvGprq-nVCTM5Tm-4" value="Model&amp;nbsp;&lt;br&gt;Clientes" style="rounded=0;whiteSpace=wrap;html=1;fontFamily=Tahoma;fontStyle=1;fillColor=#a20025;fontColor=#ffffff;strokeColor=#6F0000;" parent="1" vertex="1">
          <mxGeometry x="164" y="80" width="120" height="90" as="geometry" />
        </mxCell>
        <mxCell id="QuyFFcvGprq-nVCTM5Tm-5" value="Model&amp;nbsp;&lt;br&gt;Veículos" style="rounded=0;whiteSpace=wrap;html=1;fontFamily=Tahoma;fontStyle=1;fillColor=#a20025;fontColor=#ffffff;strokeColor=#6F0000;" parent="1" vertex="1">
          <mxGeometry x="342" y="80" width="120" height="90" as="geometry" />
        </mxCell>
        <mxCell id="QuyFFcvGprq-nVCTM5Tm-6" value="&lt;br&gt;Model&amp;nbsp;&lt;br&gt;Locação&lt;div&gt;&lt;br&gt;&lt;/div&gt;" style="rounded=0;whiteSpace=wrap;html=1;fontFamily=Tahoma;fontStyle=1;fillColor=#a20025;fontColor=#ffffff;strokeColor=#6F0000;" parent="1" vertex="1">
          <mxGeometry x="516" y="80" width="120" height="90" as="geometry" />
        </mxCell>
        <mxCell id="QuyFFcvGprq-nVCTM5Tm-12" value="&lt;div style=&quot;&quot;&gt;&lt;/div&gt;&amp;nbsp;Cadastrar&lt;br&gt;&lt;div style=&quot;&quot;&gt;&lt;span style=&quot;background-color: initial;&quot;&gt;Alterar&lt;/span&gt;&lt;/div&gt;&lt;div style=&quot;&quot;&gt;&lt;span style=&quot;background-color: initial;&quot;&gt;&amp;nbsp;Deletar&lt;/span&gt;&lt;/div&gt;&lt;div style=&quot;&quot;&gt;&lt;span style=&quot;background-color: initial;&quot;&gt;Consultar&lt;/span&gt;&lt;/div&gt;" style="whiteSpace=wrap;html=1;fontFamily=Tahoma;rounded=0;fontStyle=1;align=center;fillColor=#e51400;fontColor=#ffffff;strokeColor=#B20000;" parent="1" vertex="1">
          <mxGeometry x="160" y="455" width="110" height="110" as="geometry" />
        </mxCell>
        <mxCell id="QuyFFcvGprq-nVCTM5Tm-18" value="&lt;p style=&quot;line-height: 100%; font-size: 12px;&quot;&gt;&amp;nbsp;&lt;/p&gt;Locação de veículos&lt;p style=&quot;line-height: 100%; font-size: 12px;&quot;&gt;O Negócio:&amp;nbsp; &amp;nbsp;&lt;/p&gt;&lt;p style=&quot;line-height: 100%; font-size: 12px;&quot;&gt;o cliente&amp;nbsp; escolhe o veículo desejado e faz a locação pagando pela diária do veiculo.&lt;/p&gt;" style="rounded=0;whiteSpace=wrap;html=1;fontFamily=Tahoma;fontStyle=1;align=center;fontSize=12;fillColor=#0050ef;strokeColor=#001DBC;fontColor=#ffffff;" parent="1" vertex="1">
          <mxGeometry x="158" y="-130" width="480" height="110" as="geometry" />
        </mxCell>
        <mxCell id="QuyFFcvGprq-nVCTM5Tm-20" value="Model" style="rounded=0;whiteSpace=wrap;html=1;fontStyle=1;fillColor=#a20025;fontColor=#ffffff;strokeColor=#6F0000;" parent="1" vertex="1">
          <mxGeometry x="160" y="10" width="480" height="50" as="geometry" />
        </mxCell>
        <mxCell id="QuyFFcvGprq-nVCTM5Tm-22" value="Use Case" style="rounded=0;whiteSpace=wrap;html=1;fontFamily=Tahoma;fontStyle=1;fillColor=#e51400;fontColor=#ffffff;strokeColor=#B20000;" parent="1" vertex="1">
          <mxGeometry x="160" y="390" width="480" height="40" as="geometry" />
        </mxCell>
        <mxCell id="QuyFFcvGprq-nVCTM5Tm-25" value="Rules Bussines" style="rounded=0;whiteSpace=wrap;html=1;fontFamily=Tahoma;fontStyle=1;fillColor=#6d8764;strokeColor=#3A5431;fontColor=#ffffff;" parent="1" vertex="1">
          <mxGeometry x="160" y="584.5" width="480" height="40" as="geometry" />
        </mxCell>
        <mxCell id="QuyFFcvGprq-nVCTM5Tm-26" value="&lt;div style=&quot;font-size: 12px;&quot;&gt;&lt;span style=&quot;background-color: initial;&quot;&gt;&amp;nbsp;- Não permtir persistir veículo sem o nome.&lt;/span&gt;&lt;br&gt;&lt;/div&gt;&lt;div style=&quot;font-size: 12px;&quot;&gt;&amp;nbsp;- Nao permitir persisitr veículo com nome menor do que 3 caracteres.&lt;span style=&quot;font-size: 12px;&quot;&gt;&lt;/span&gt;&lt;/div&gt;&lt;div style=&quot;font-size: 12px;&quot;&gt;&lt;span style=&quot;font-size: 12px;&quot;&gt;&lt;span style=&quot;font-size: 12px;&quot;&gt;&lt;span style=&quot;white-space: pre; font-size: 12px;&quot;&gt;&amp;nbsp;&lt;/span&gt;&lt;/span&gt;- Não permitiir persistir veículo sem a placa.&lt;/span&gt;&lt;/div&gt;&lt;div style=&quot;font-size: 12px;&quot;&gt;&lt;span style=&quot;font-size: 12px;&quot;&gt;&lt;span style=&quot;font-size: 12px;&quot;&gt;&lt;span style=&quot;white-space: pre; font-size: 12px;&quot;&gt;&amp;nbsp;&lt;/span&gt;&lt;/span&gt;- Não permitir persistir veículo com placa menor do que 6 caracteres.&lt;/span&gt;&lt;/div&gt;&lt;div style=&quot;font-size: 12px;&quot;&gt;&lt;span style=&quot;font-size: 12px;&quot;&gt;&lt;span style=&quot;font-size: 12px;&quot;&gt;&lt;span style=&quot;white-space: pre; font-size: 12px;&quot;&gt;&amp;nbsp;&lt;/span&gt;&lt;/span&gt;- Não permitir persistir veículo com valor menor ou igual a zero&lt;/span&gt;&lt;/div&gt;" style="rounded=0;whiteSpace=wrap;html=1;align=left;fillColor=#6d8764;fontColor=#ffffff;strokeColor=#3A5431;fontFamily=Tahoma;fontStyle=1;fontSize=12;" parent="1" vertex="1">
          <mxGeometry x="167" y="890" width="473" height="100" as="geometry" />
        </mxCell>
        <mxCell id="QuyFFcvGprq-nVCTM5Tm-27" value="&lt;div style=&quot;font-size: 12px;&quot;&gt;&lt;div style=&quot;text-align: center; font-size: 12px;&quot;&gt;&lt;br&gt;&lt;/div&gt;&lt;div style=&quot;font-size: 12px;&quot;&gt;&lt;span style=&quot;white-space: pre; font-size: 12px;&quot;&gt;&amp;nbsp;&amp;nbsp;&amp;nbsp;&amp;nbsp;&lt;/span&gt;- Não permitir persitir cliente sem o nome.&lt;/div&gt;&lt;div style=&quot;font-size: 12px;&quot;&gt;&lt;span style=&quot;font-size: 12px;&quot;&gt;&lt;span style=&quot;white-space: pre; font-size: 12px;&quot;&gt;&amp;nbsp;&amp;nbsp;&amp;nbsp;&amp;nbsp;&lt;/span&gt;&lt;/span&gt;- Não permitir persistir cliente com nome menor do que 4 caracteres.&lt;/div&gt;&lt;div style=&quot;font-size: 12px;&quot;&gt;&lt;span style=&quot;font-size: 12px;&quot;&gt;&lt;span style=&quot;white-space: pre; font-size: 12px;&quot;&gt;&amp;nbsp;&amp;nbsp;&amp;nbsp;&amp;nbsp;&lt;/span&gt;&lt;/span&gt;- Não permitir persisitr cliente sem documento.&lt;/div&gt;&lt;div style=&quot;font-size: 12px;&quot;&gt;&lt;span style=&quot;font-size: 12px;&quot;&gt;&lt;span style=&quot;white-space: pre; font-size: 12px;&quot;&gt;&amp;nbsp;&amp;nbsp;&amp;nbsp;&amp;nbsp;&lt;/span&gt;&lt;/span&gt;- Não permitir persisiter cliente com documento menor do que 4 caracteres.&lt;/div&gt;&lt;div style=&quot;font-size: 12px;&quot;&gt;&lt;span style=&quot;font-size: 12px;&quot;&gt;&lt;span style=&quot;white-space: pre; font-size: 12px;&quot;&gt;&amp;nbsp;&amp;nbsp;&amp;nbsp;&amp;nbsp;&lt;/span&gt;&lt;/span&gt;- Não permitir Persisitir cliente sem telefone.&lt;/div&gt;&lt;div style=&quot;font-size: 12px;&quot;&gt;&amp;nbsp; &amp;nbsp; - Não permitir persisitr&amp;nbsp; cliente com telefone menor do que 8 caracteres.&lt;/div&gt;&lt;/div&gt;" style="rounded=0;whiteSpace=wrap;html=1;align=left;fillColor=#6d8764;fontColor=#ffffff;strokeColor=#3A5431;fontFamily=Tahoma;fontStyle=1;fontSize=12;" parent="1" vertex="1">
          <mxGeometry x="165" y="700" width="475" height="120" as="geometry" />
        </mxCell>
        <mxCell id="QuyFFcvGprq-nVCTM5Tm-28" value="Clientes" style="rounded=0;whiteSpace=wrap;html=1;fontFamily=Tahoma;fontStyle=1;fillColor=#6d8764;strokeColor=#3A5431;fontColor=#ffffff;" parent="1" vertex="1">
          <mxGeometry x="164" y="650" width="476" height="40" as="geometry" />
        </mxCell>
        <mxCell id="QuyFFcvGprq-nVCTM5Tm-30" value="Veículos" style="rounded=0;whiteSpace=wrap;html=1;fontFamily=Tahoma;fontStyle=1;fillColor=#6d8764;strokeColor=#3A5431;fontColor=#ffffff;" parent="1" vertex="1">
          <mxGeometry x="167" y="840" width="473" height="40" as="geometry" />
        </mxCell>
        <mxCell id="QuyFFcvGprq-nVCTM5Tm-31" value="&lt;div style=&quot;font-size: 12px;&quot;&gt;&lt;div&gt;&lt;span style=&quot;white-space: pre;&quot;&gt;&amp;nbsp;&lt;/span&gt;- Não permitir persisitir locaçao sem veículos.&lt;/div&gt;&lt;div&gt;&lt;span style=&quot;&quot;&gt;&lt;span style=&quot;white-space: pre;&quot;&gt;&amp;nbsp;&lt;/span&gt;&lt;/span&gt;- Não permitir persisitr locação sem cliente.&lt;/div&gt;&lt;div&gt;&lt;span style=&quot;&quot;&gt;&lt;span style=&quot;white-space: pre;&quot;&gt;&amp;nbsp;&lt;/span&gt;&lt;/span&gt;- Não permitir persisitr locação com veículo com status alugado&lt;/div&gt;&lt;div&gt;&lt;span style=&quot;&quot;&gt;&lt;span style=&quot;white-space: pre;&quot;&gt;&amp;nbsp;&lt;/span&gt;&lt;/span&gt;- Calcular o valor total (baseado na quantidade de dias entre data de locação e devolução multiplicando pelo valor da diária do&amp;nbsp; veículo)&lt;/div&gt;&lt;/div&gt;" style="rounded=0;whiteSpace=wrap;html=1;align=left;fillColor=#6d8764;fontColor=#ffffff;strokeColor=#3A5431;fontFamily=Tahoma;fontStyle=1;fontSize=12;" parent="1" vertex="1">
          <mxGeometry x="167" y="1060" width="473" height="100" as="geometry" />
        </mxCell>
        <mxCell id="QuyFFcvGprq-nVCTM5Tm-32" value="Locação" style="rounded=0;whiteSpace=wrap;html=1;fontFamily=Tahoma;fontStyle=1;fillColor=#6d8764;strokeColor=#3A5431;fontColor=#ffffff;" parent="1" vertex="1">
          <mxGeometry x="167" y="1010" width="473" height="40" as="geometry" />
        </mxCell>
        <mxCell id="QuyFFcvGprq-nVCTM5Tm-33" value="Property Model" style="rounded=0;whiteSpace=wrap;html=1;fillColor=#647687;fontColor=#ffffff;strokeColor=#314354;fontStyle=1" parent="1" vertex="1">
          <mxGeometry x="160" y="190" width="476" height="40" as="geometry" />
        </mxCell>
        <mxCell id="QuyFFcvGprq-nVCTM5Tm-34" value="&lt;div style=&quot;&quot;&gt;Id&lt;span style=&quot;&quot;&gt;&lt;/span&gt;&lt;/div&gt;&lt;div style=&quot;&quot;&gt;&lt;span style=&quot;&quot;&gt;&amp;nbsp;Nome&lt;/span&gt;&lt;/div&gt;&lt;div&gt;&lt;span style=&quot;&quot;&gt;&amp;nbsp;Documento&amp;nbsp;&lt;/span&gt;&lt;/div&gt;&lt;div&gt;&lt;span style=&quot;&quot;&gt;&amp;nbsp;Endereço&lt;/span&gt;&lt;/div&gt;&lt;div&gt;&lt;span style=&quot;background-color: initial;&quot;&gt;Telefone&amp;nbsp;&lt;/span&gt;&lt;br&gt;&lt;/div&gt;" style="rounded=0;whiteSpace=wrap;html=1;align=center;fillColor=#647687;fontColor=#ffffff;strokeColor=#314354;fontStyle=1" parent="1" vertex="1">
          <mxGeometry x="160" y="250" width="120" height="110" as="geometry" />
        </mxCell>
        <mxCell id="QuyFFcvGprq-nVCTM5Tm-37" value="&lt;div style=&quot;&quot;&gt;&lt;/div&gt;&amp;nbsp;Cadastrar&lt;br&gt;&lt;div style=&quot;&quot;&gt;&lt;span style=&quot;background-color: initial;&quot;&gt;Alterar&lt;/span&gt;&lt;/div&gt;&lt;div style=&quot;&quot;&gt;&lt;span style=&quot;background-color: initial;&quot;&gt;&amp;nbsp;Deletar&lt;/span&gt;&lt;/div&gt;&lt;div style=&quot;&quot;&gt;&lt;span style=&quot;background-color: initial;&quot;&gt;Consultar&lt;/span&gt;&lt;/div&gt;" style="whiteSpace=wrap;html=1;fontFamily=Tahoma;rounded=0;fontStyle=1;align=center;fillColor=#e51400;fontColor=#ffffff;strokeColor=#B20000;" parent="1" vertex="1">
          <mxGeometry x="348.5" y="450" width="110" height="110" as="geometry" />
        </mxCell>
        <mxCell id="QuyFFcvGprq-nVCTM5Tm-38" value="&lt;div style=&quot;&quot;&gt;&lt;/div&gt;&amp;nbsp;Cadastrar&lt;br&gt;&lt;div style=&quot;&quot;&gt;&lt;span style=&quot;background-color: initial;&quot;&gt;Alterar&lt;/span&gt;&lt;/div&gt;&lt;div style=&quot;&quot;&gt;&lt;span style=&quot;background-color: initial;&quot;&gt;&amp;nbsp;Deletar&lt;/span&gt;&lt;/div&gt;&lt;div style=&quot;&quot;&gt;&lt;span style=&quot;background-color: initial;&quot;&gt;Consultar&lt;/span&gt;&lt;/div&gt;" style="whiteSpace=wrap;html=1;fontFamily=Tahoma;rounded=0;fontStyle=1;align=center;fillColor=#e51400;fontColor=#ffffff;strokeColor=#B20000;" parent="1" vertex="1">
          <mxGeometry x="530" y="450" width="110" height="110" as="geometry" />
        </mxCell>
        <mxCell id="QuyFFcvGprq-nVCTM5Tm-40" value="&lt;div style=&quot;&quot;&gt;&lt;div&gt;Id&lt;/div&gt;&lt;div&gt;&lt;span style=&quot;white-space: pre;&quot;&gt;&amp;nbsp;&amp;nbsp;&amp;nbsp;&lt;/span&gt;Nome&lt;/div&gt;&lt;div&gt;&lt;span style=&quot;&quot;&gt;&lt;span style=&quot;white-space: pre;&quot;&gt;&amp;nbsp;&amp;nbsp;&amp;nbsp;&lt;/span&gt;&lt;/span&gt;Placa&lt;/div&gt;&lt;div&gt;&lt;span style=&quot;&quot;&gt;&lt;span style=&quot;white-space: pre;&quot;&gt;&amp;nbsp;&amp;nbsp;&amp;nbsp;&lt;/span&gt;&lt;/span&gt;Valor&lt;/div&gt;&lt;div&gt;&lt;span style=&quot;&quot;&gt;&lt;span style=&quot;white-space: pre;&quot;&gt;&amp;nbsp;&lt;/span&gt;&lt;/span&gt;Status&amp;nbsp;&lt;/div&gt;&lt;div&gt;&amp;nbsp;(Disponível,&lt;/div&gt;&lt;div&gt;Alugado)&lt;/div&gt;&lt;/div&gt;" style="rounded=0;whiteSpace=wrap;html=1;align=center;fillColor=#647687;fontColor=#ffffff;strokeColor=#314354;fontStyle=1" parent="1" vertex="1">
          <mxGeometry x="338" y="250" width="120" height="110" as="geometry" />
        </mxCell>
        <mxCell id="QuyFFcvGprq-nVCTM5Tm-41" value="&lt;div style=&quot;&quot;&gt;&lt;div&gt;&lt;span style=&quot;white-space: pre;&quot;&gt;&amp;nbsp;&lt;/span&gt;Id&lt;/div&gt;&lt;div&gt;&lt;span style=&quot;&quot;&gt;&lt;span style=&quot;white-space: pre;&quot;&gt;&amp;nbsp;&lt;/span&gt;&lt;/span&gt;CLiente&lt;/div&gt;&lt;div&gt;&lt;span style=&quot;&quot;&gt;&lt;span style=&quot;white-space: pre;&quot;&gt;&amp;nbsp;&amp;nbsp;&amp;nbsp;&lt;/span&gt;&lt;/span&gt;Data Locaçao&lt;/div&gt;&lt;div&gt;&lt;span style=&quot;&quot;&gt;&lt;span style=&quot;white-space: pre;&quot;&gt;&amp;nbsp;&amp;nbsp;&amp;nbsp;&amp;nbsp;&lt;/span&gt;&lt;/span&gt;Data Devolução&lt;/div&gt;&lt;div&gt;&lt;span style=&quot;&quot;&gt;&lt;span style=&quot;white-space: pre;&quot;&gt;&amp;nbsp;&amp;nbsp;&amp;nbsp;&amp;nbsp;&lt;/span&gt;&lt;/span&gt;Veículo&lt;/div&gt;&lt;div&gt;&lt;span style=&quot;background-color: initial;&quot;&gt;Total&lt;/span&gt;&lt;/div&gt;&lt;/div&gt;" style="rounded=0;whiteSpace=wrap;html=1;align=center;fillColor=#647687;fontColor=#ffffff;strokeColor=#314354;fontStyle=1" parent="1" vertex="1">
          <mxGeometry x="516" y="250" width="120" height="110" as="geometry" />
        </mxCell>
      </root>
    </mxGraphModel>
  </diagram>
</mxfile>
